<mxfile host="app.diagrams.net" modified="2023-12-08T09:12:52.116Z" agent="Mozilla/5.0 (Macintosh; Intel Mac OS X 10_15_7) AppleWebKit/537.36 (KHTML, like Gecko) Chrome/116.0.0.0 Safari/537.36" etag="dH95nYvJ1g8GINdnopUi" version="22.1.7" type="device">
  <diagram name="Page-1" id="7UeItsiaAT6cRmnZYnPv">
    <mxGraphModel dx="415" dy="269" grid="1" gridSize="10" guides="1" tooltips="1" connect="1" arrows="1" fold="1" page="1" pageScale="1" pageWidth="850" pageHeight="1100" math="0" shadow="0">
      <root>
        <mxCell id="0" />
        <mxCell id="1" parent="0" />
        <mxCell id="t2_HDo_gR8r6uLbIWAYg-1" value="User" style="rounded=0;whiteSpace=wrap;html=1;" parent="1" vertex="1">
          <mxGeometry x="80" y="10" width="120" height="60" as="geometry" />
        </mxCell>
        <mxCell id="t2_HDo_gR8r6uLbIWAYg-2" value="Application" style="rounded=0;whiteSpace=wrap;html=1;" parent="1" vertex="1">
          <mxGeometry x="220" y="10" width="120" height="60" as="geometry" />
        </mxCell>
        <mxCell id="t2_HDo_gR8r6uLbIWAYg-3" value="Configuration Page" style="rounded=0;whiteSpace=wrap;html=1;" parent="1" vertex="1">
          <mxGeometry x="360" y="10" width="120" height="60" as="geometry" />
        </mxCell>
        <mxCell id="t2_HDo_gR8r6uLbIWAYg-4" value="Database" style="rounded=0;whiteSpace=wrap;html=1;" parent="1" vertex="1">
          <mxGeometry x="640" y="10" width="120" height="60" as="geometry" />
        </mxCell>
        <mxCell id="t2_HDo_gR8r6uLbIWAYg-5" value="API Data Page" style="rounded=0;whiteSpace=wrap;html=1;" parent="1" vertex="1">
          <mxGeometry x="500" y="10" width="120" height="60" as="geometry" />
        </mxCell>
        <mxCell id="t2_HDo_gR8r6uLbIWAYg-7" value="" style="endArrow=none;dashed=1;html=1;rounded=0;entryX=0.5;entryY=1;entryDx=0;entryDy=0;" parent="1" target="t2_HDo_gR8r6uLbIWAYg-1" edge="1">
          <mxGeometry width="50" height="50" relative="1" as="geometry">
            <mxPoint x="140" y="1070" as="sourcePoint" />
            <mxPoint x="500" y="300" as="targetPoint" />
          </mxGeometry>
        </mxCell>
        <mxCell id="t2_HDo_gR8r6uLbIWAYg-8" value="" style="endArrow=none;dashed=1;html=1;rounded=0;entryX=0.5;entryY=1;entryDx=0;entryDy=0;" parent="1" source="t2_HDo_gR8r6uLbIWAYg-15" target="t2_HDo_gR8r6uLbIWAYg-2" edge="1">
          <mxGeometry width="50" height="50" relative="1" as="geometry">
            <mxPoint x="280" y="800" as="sourcePoint" />
            <mxPoint x="151" y="130" as="targetPoint" />
          </mxGeometry>
        </mxCell>
        <mxCell id="t2_HDo_gR8r6uLbIWAYg-9" value="" style="endArrow=none;dashed=1;html=1;rounded=0;entryX=0.5;entryY=1;entryDx=0;entryDy=0;" parent="1" source="t2_HDo_gR8r6uLbIWAYg-17" target="t2_HDo_gR8r6uLbIWAYg-3" edge="1">
          <mxGeometry width="50" height="50" relative="1" as="geometry">
            <mxPoint x="420" y="800" as="sourcePoint" />
            <mxPoint x="400" y="140" as="targetPoint" />
          </mxGeometry>
        </mxCell>
        <mxCell id="t2_HDo_gR8r6uLbIWAYg-10" value="" style="endArrow=none;dashed=1;html=1;rounded=0;entryX=0.5;entryY=1;entryDx=0;entryDy=0;" parent="1" source="t2_HDo_gR8r6uLbIWAYg-27" target="t2_HDo_gR8r6uLbIWAYg-4" edge="1">
          <mxGeometry width="50" height="50" relative="1" as="geometry">
            <mxPoint y="800" as="sourcePoint" />
            <mxPoint x="-2.5" y="150" as="targetPoint" />
          </mxGeometry>
        </mxCell>
        <mxCell id="t2_HDo_gR8r6uLbIWAYg-11" value="" style="endArrow=none;dashed=1;html=1;rounded=0;entryX=0.5;entryY=1;entryDx=0;entryDy=0;" parent="1" source="IsEehOF22z_RGlnrgcad-8" target="t2_HDo_gR8r6uLbIWAYg-5" edge="1">
          <mxGeometry width="50" height="50" relative="1" as="geometry">
            <mxPoint x="560" y="800" as="sourcePoint" />
            <mxPoint x="580" y="130" as="targetPoint" />
          </mxGeometry>
        </mxCell>
        <mxCell id="t2_HDo_gR8r6uLbIWAYg-14" value="" style="rounded=0;whiteSpace=wrap;html=1;" parent="1" vertex="1">
          <mxGeometry x="130" y="90" width="20" height="890" as="geometry" />
        </mxCell>
        <mxCell id="t2_HDo_gR8r6uLbIWAYg-16" value="" style="endArrow=none;dashed=1;html=1;rounded=0;entryX=0.5;entryY=1;entryDx=0;entryDy=0;" parent="1" target="t2_HDo_gR8r6uLbIWAYg-15" edge="1">
          <mxGeometry width="50" height="50" relative="1" as="geometry">
            <mxPoint x="280" y="1070" as="sourcePoint" />
            <mxPoint x="280" y="120" as="targetPoint" />
          </mxGeometry>
        </mxCell>
        <mxCell id="t2_HDo_gR8r6uLbIWAYg-15" value="" style="rounded=0;whiteSpace=wrap;html=1;" parent="1" vertex="1">
          <mxGeometry x="270" y="100" width="20" height="870" as="geometry" />
        </mxCell>
        <mxCell id="t2_HDo_gR8r6uLbIWAYg-18" value="" style="endArrow=none;dashed=1;html=1;rounded=0;entryX=0.5;entryY=1;entryDx=0;entryDy=0;" parent="1" source="IsEehOF22z_RGlnrgcad-14" target="t2_HDo_gR8r6uLbIWAYg-17" edge="1">
          <mxGeometry width="50" height="50" relative="1" as="geometry">
            <mxPoint x="420" y="800" as="sourcePoint" />
            <mxPoint x="420" y="120" as="targetPoint" />
          </mxGeometry>
        </mxCell>
        <mxCell id="t2_HDo_gR8r6uLbIWAYg-17" value="" style="rounded=0;whiteSpace=wrap;html=1;" parent="1" vertex="1">
          <mxGeometry x="410" y="150" width="20" height="250" as="geometry" />
        </mxCell>
        <mxCell id="t2_HDo_gR8r6uLbIWAYg-19" value="Scores Object" style="rounded=0;whiteSpace=wrap;html=1;" parent="1" vertex="1">
          <mxGeometry x="780" y="10" width="120" height="60" as="geometry" />
        </mxCell>
        <mxCell id="t2_HDo_gR8r6uLbIWAYg-23" value="" style="endArrow=classic;html=1;rounded=0;" parent="1" edge="1">
          <mxGeometry width="50" height="50" relative="1" as="geometry">
            <mxPoint x="160" y="100" as="sourcePoint" />
            <mxPoint x="260" y="100" as="targetPoint" />
          </mxGeometry>
        </mxCell>
        <mxCell id="t2_HDo_gR8r6uLbIWAYg-24" value="" style="endArrow=classic;html=1;rounded=0;" parent="1" edge="1">
          <mxGeometry width="50" height="50" relative="1" as="geometry">
            <mxPoint x="300" y="150" as="sourcePoint" />
            <mxPoint x="400" y="150" as="targetPoint" />
          </mxGeometry>
        </mxCell>
        <mxCell id="t2_HDo_gR8r6uLbIWAYg-25" value="" style="endArrow=classic;html=1;rounded=0;" parent="1" edge="1">
          <mxGeometry width="50" height="50" relative="1" as="geometry">
            <mxPoint x="440" y="160" as="sourcePoint" />
            <mxPoint x="680" y="160" as="targetPoint" />
          </mxGeometry>
        </mxCell>
        <mxCell id="t2_HDo_gR8r6uLbIWAYg-26" value="" style="endArrow=open;html=1;rounded=0;endFill=0;" parent="1" edge="1">
          <mxGeometry width="50" height="50" relative="1" as="geometry">
            <mxPoint x="440" y="370" as="sourcePoint" />
            <mxPoint x="680" y="370" as="targetPoint" />
          </mxGeometry>
        </mxCell>
        <mxCell id="t2_HDo_gR8r6uLbIWAYg-28" value="" style="endArrow=none;dashed=1;html=1;rounded=0;entryX=0.5;entryY=1;entryDx=0;entryDy=0;" parent="1" source="P0kKwZg5c5ulI8x3I3IC-27" target="t2_HDo_gR8r6uLbIWAYg-27" edge="1">
          <mxGeometry width="50" height="50" relative="1" as="geometry">
            <mxPoint x="700" y="800" as="sourcePoint" />
            <mxPoint x="700" y="120" as="targetPoint" />
          </mxGeometry>
        </mxCell>
        <mxCell id="t2_HDo_gR8r6uLbIWAYg-27" value="" style="rounded=0;whiteSpace=wrap;html=1;" parent="1" vertex="1">
          <mxGeometry x="690" y="160" width="20" height="190" as="geometry" />
        </mxCell>
        <mxCell id="t2_HDo_gR8r6uLbIWAYg-29" value="" style="endArrow=classic;html=1;rounded=0;dashed=1;" parent="1" edge="1">
          <mxGeometry width="50" height="50" relative="1" as="geometry">
            <mxPoint x="400" y="400" as="sourcePoint" />
            <mxPoint x="300" y="400" as="targetPoint" />
          </mxGeometry>
        </mxCell>
        <mxCell id="t2_HDo_gR8r6uLbIWAYg-30" value="" style="endArrow=classic;html=1;rounded=0;" parent="1" edge="1">
          <mxGeometry width="50" height="50" relative="1" as="geometry">
            <mxPoint x="300" y="420" as="sourcePoint" />
            <mxPoint x="540" y="420" as="targetPoint" />
          </mxGeometry>
        </mxCell>
        <mxCell id="t2_HDo_gR8r6uLbIWAYg-32" value="" style="endArrow=none;dashed=1;html=1;rounded=0;entryX=0.5;entryY=1;entryDx=0;entryDy=0;" parent="1" target="t2_HDo_gR8r6uLbIWAYg-31" edge="1">
          <mxGeometry width="50" height="50" relative="1" as="geometry">
            <mxPoint x="560" y="620" as="sourcePoint" />
            <mxPoint x="560" y="-60" as="targetPoint" />
          </mxGeometry>
        </mxCell>
        <mxCell id="t2_HDo_gR8r6uLbIWAYg-31" value="" style="rounded=0;whiteSpace=wrap;html=1;" parent="1" vertex="1">
          <mxGeometry x="550" y="420" width="20" height="540" as="geometry" />
        </mxCell>
        <mxCell id="t2_HDo_gR8r6uLbIWAYg-37" value="" style="endArrow=open;html=1;rounded=0;endFill=0;" parent="1" edge="1">
          <mxGeometry width="50" height="50" relative="1" as="geometry">
            <mxPoint x="580" y="590" as="sourcePoint" />
            <mxPoint x="820" y="590" as="targetPoint" />
          </mxGeometry>
        </mxCell>
        <mxCell id="t2_HDo_gR8r6uLbIWAYg-41" value="" style="endArrow=classic;html=1;rounded=0;dashed=1;" parent="1" edge="1">
          <mxGeometry width="50" height="50" relative="1" as="geometry">
            <mxPoint x="820" y="650" as="sourcePoint" />
            <mxPoint x="580" y="650" as="targetPoint" />
          </mxGeometry>
        </mxCell>
        <mxCell id="t2_HDo_gR8r6uLbIWAYg-59" value="" style="endArrow=none;dashed=1;html=1;rounded=0;entryX=0.5;entryY=1;entryDx=0;entryDy=0;" parent="1" source="t2_HDo_gR8r6uLbIWAYg-60" target="t2_HDo_gR8r6uLbIWAYg-19" edge="1">
          <mxGeometry width="50" height="50" relative="1" as="geometry">
            <mxPoint x="840" y="800" as="sourcePoint" />
            <mxPoint x="900" y="220" as="targetPoint" />
          </mxGeometry>
        </mxCell>
        <mxCell id="t2_HDo_gR8r6uLbIWAYg-63" value="FIRST API" style="rounded=0;whiteSpace=wrap;html=1;" parent="1" vertex="1">
          <mxGeometry x="1060" y="10" width="120" height="60" as="geometry" />
        </mxCell>
        <mxCell id="t2_HDo_gR8r6uLbIWAYg-64" value="" style="endArrow=none;dashed=1;html=1;rounded=0;entryX=0.5;entryY=1;entryDx=0;entryDy=0;" parent="1" source="t2_HDo_gR8r6uLbIWAYg-74" target="t2_HDo_gR8r6uLbIWAYg-63" edge="1">
          <mxGeometry width="50" height="50" relative="1" as="geometry">
            <mxPoint x="1120" y="800" as="sourcePoint" />
            <mxPoint x="1180" y="220" as="targetPoint" />
          </mxGeometry>
        </mxCell>
        <mxCell id="t2_HDo_gR8r6uLbIWAYg-65" value="Schedule Object" style="rounded=0;whiteSpace=wrap;html=1;" parent="1" vertex="1">
          <mxGeometry x="920" y="10" width="120" height="60" as="geometry" />
        </mxCell>
        <mxCell id="t2_HDo_gR8r6uLbIWAYg-66" value="" style="endArrow=none;dashed=1;html=1;rounded=0;entryX=0.5;entryY=1;entryDx=0;entryDy=0;" parent="1" source="IsEehOF22z_RGlnrgcad-42" target="t2_HDo_gR8r6uLbIWAYg-65" edge="1">
          <mxGeometry width="50" height="50" relative="1" as="geometry">
            <mxPoint x="980" y="800" as="sourcePoint" />
            <mxPoint x="1040" y="220" as="targetPoint" />
          </mxGeometry>
        </mxCell>
        <mxCell id="t2_HDo_gR8r6uLbIWAYg-67" value="" style="endArrow=none;dashed=1;html=1;rounded=0;entryX=0.5;entryY=1;entryDx=0;entryDy=0;" parent="1" target="t2_HDo_gR8r6uLbIWAYg-60" edge="1">
          <mxGeometry width="50" height="50" relative="1" as="geometry">
            <mxPoint x="840" y="1070" as="sourcePoint" />
            <mxPoint x="840" y="-20" as="targetPoint" />
          </mxGeometry>
        </mxCell>
        <mxCell id="t2_HDo_gR8r6uLbIWAYg-60" value="" style="rounded=0;whiteSpace=wrap;html=1;" parent="1" vertex="1">
          <mxGeometry x="830" y="590" width="20" height="60" as="geometry" />
        </mxCell>
        <mxCell id="t2_HDo_gR8r6uLbIWAYg-68" value="" style="rounded=0;whiteSpace=wrap;html=1;" parent="1" vertex="1">
          <mxGeometry x="1110" y="600" width="20" height="40" as="geometry" />
        </mxCell>
        <mxCell id="t2_HDo_gR8r6uLbIWAYg-69" value="" style="endArrow=classic;html=1;rounded=0;" parent="1" edge="1">
          <mxGeometry width="50" height="50" relative="1" as="geometry">
            <mxPoint x="860" y="600" as="sourcePoint" />
            <mxPoint x="1100" y="600" as="targetPoint" />
          </mxGeometry>
        </mxCell>
        <mxCell id="t2_HDo_gR8r6uLbIWAYg-70" value="" style="endArrow=classic;html=1;rounded=0;dashed=1;" parent="1" edge="1">
          <mxGeometry width="50" height="50" relative="1" as="geometry">
            <mxPoint x="1100" y="640" as="sourcePoint" />
            <mxPoint x="860" y="640" as="targetPoint" />
          </mxGeometry>
        </mxCell>
        <mxCell id="t2_HDo_gR8r6uLbIWAYg-73" value="" style="endArrow=open;html=1;rounded=0;endFill=0;" parent="1" edge="1">
          <mxGeometry width="50" height="50" relative="1" as="geometry">
            <mxPoint x="580" y="690" as="sourcePoint" />
            <mxPoint x="960" y="690" as="targetPoint" />
          </mxGeometry>
        </mxCell>
        <mxCell id="t2_HDo_gR8r6uLbIWAYg-75" value="" style="endArrow=none;dashed=1;html=1;rounded=0;entryX=0.5;entryY=1;entryDx=0;entryDy=0;" parent="1" target="t2_HDo_gR8r6uLbIWAYg-74" edge="1">
          <mxGeometry width="50" height="50" relative="1" as="geometry">
            <mxPoint x="1120" y="660" as="sourcePoint" />
            <mxPoint x="1120" y="-20" as="targetPoint" />
          </mxGeometry>
        </mxCell>
        <mxCell id="t2_HDo_gR8r6uLbIWAYg-74" value="" style="rounded=0;whiteSpace=wrap;html=1;" parent="1" vertex="1">
          <mxGeometry x="1110" y="700" width="20" height="40" as="geometry" />
        </mxCell>
        <mxCell id="t2_HDo_gR8r6uLbIWAYg-76" value="" style="endArrow=classic;html=1;rounded=0;dashed=1;" parent="1" edge="1">
          <mxGeometry width="50" height="50" relative="1" as="geometry">
            <mxPoint x="960" y="750" as="sourcePoint" />
            <mxPoint x="580" y="750" as="targetPoint" />
          </mxGeometry>
        </mxCell>
        <mxCell id="t2_HDo_gR8r6uLbIWAYg-77" value="" style="endArrow=classic;html=1;rounded=0;" parent="1" edge="1">
          <mxGeometry width="50" height="50" relative="1" as="geometry">
            <mxPoint x="1000" y="700" as="sourcePoint" />
            <mxPoint x="1100" y="700" as="targetPoint" />
          </mxGeometry>
        </mxCell>
        <mxCell id="t2_HDo_gR8r6uLbIWAYg-78" value="" style="endArrow=classic;html=1;rounded=0;dashed=1;" parent="1" edge="1">
          <mxGeometry width="50" height="50" relative="1" as="geometry">
            <mxPoint x="1100" y="740" as="sourcePoint" />
            <mxPoint x="1000" y="740" as="targetPoint" />
          </mxGeometry>
        </mxCell>
        <mxCell id="t2_HDo_gR8r6uLbIWAYg-80" value="" style="endArrow=none;dashed=1;html=1;rounded=0;exitX=0.5;exitY=1;exitDx=0;exitDy=0;" parent="1" edge="1" source="P0kKwZg5c5ulI8x3I3IC-61">
          <mxGeometry width="50" height="50" relative="1" as="geometry">
            <mxPoint x="700" y="740" as="sourcePoint" />
            <mxPoint x="700" y="1070" as="targetPoint" />
          </mxGeometry>
        </mxCell>
        <mxCell id="t2_HDo_gR8r6uLbIWAYg-82" value="" style="endArrow=open;html=1;rounded=0;endFill=0;" parent="1" edge="1">
          <mxGeometry width="50" height="50" relative="1" as="geometry">
            <mxPoint x="580" y="550" as="sourcePoint" />
            <mxPoint x="680" y="550" as="targetPoint" />
          </mxGeometry>
        </mxCell>
        <mxCell id="t2_HDo_gR8r6uLbIWAYg-85" value="" style="endArrow=none;dashed=1;html=1;rounded=0;entryX=0.5;entryY=1;entryDx=0;entryDy=0;" parent="1" source="P0kKwZg5c5ulI8x3I3IC-43" target="t2_HDo_gR8r6uLbIWAYg-84" edge="1">
          <mxGeometry width="50" height="50" relative="1" as="geometry">
            <mxPoint x="700" y="660" as="sourcePoint" />
            <mxPoint x="700" y="330" as="targetPoint" />
          </mxGeometry>
        </mxCell>
        <mxCell id="t2_HDo_gR8r6uLbIWAYg-84" value="" style="rounded=0;whiteSpace=wrap;html=1;" parent="1" vertex="1">
          <mxGeometry x="690" y="430" width="20" height="100" as="geometry" />
        </mxCell>
        <mxCell id="t2_HDo_gR8r6uLbIWAYg-86" value="" style="endArrow=classic;html=1;rounded=0;" parent="1" edge="1">
          <mxGeometry width="50" height="50" relative="1" as="geometry">
            <mxPoint x="580" y="429.80999999999995" as="sourcePoint" />
            <mxPoint x="680" y="429.80999999999995" as="targetPoint" />
          </mxGeometry>
        </mxCell>
        <mxCell id="t2_HDo_gR8r6uLbIWAYg-89" value="" style="endArrow=classic;html=1;rounded=0;" parent="1" edge="1">
          <mxGeometry width="50" height="50" relative="1" as="geometry">
            <mxPoint x="260" y="970.12" as="sourcePoint" />
            <mxPoint x="160" y="970.12" as="targetPoint" />
          </mxGeometry>
        </mxCell>
        <mxCell id="IsEehOF22z_RGlnrgcad-2" value="Open App" style="text;html=1;strokeColor=none;fillColor=none;align=center;verticalAlign=middle;whiteSpace=wrap;rounded=0;" parent="1" vertex="1">
          <mxGeometry x="180" y="100.65" width="60" height="20" as="geometry" />
        </mxCell>
        <mxCell id="IsEehOF22z_RGlnrgcad-3" value="&amp;lt;&amp;lt;create&amp;gt;&amp;gt;" style="text;html=1;strokeColor=none;fillColor=none;align=center;verticalAlign=middle;whiteSpace=wrap;rounded=0;" parent="1" vertex="1">
          <mxGeometry x="320" y="150" width="60" height="20" as="geometry" />
        </mxCell>
        <mxCell id="IsEehOF22z_RGlnrgcad-9" value="" style="endArrow=none;dashed=1;html=1;rounded=0;entryX=0.5;entryY=1;entryDx=0;entryDy=0;" parent="1" source="IsEehOF22z_RGlnrgcad-23" target="IsEehOF22z_RGlnrgcad-8" edge="1">
          <mxGeometry width="50" height="50" relative="1" as="geometry">
            <mxPoint x="560" y="250" as="sourcePoint" />
            <mxPoint x="560" y="200" as="targetPoint" />
          </mxGeometry>
        </mxCell>
        <mxCell id="IsEehOF22z_RGlnrgcad-8" value="openConnection()" style="text;html=1;strokeColor=none;fillColor=none;align=center;verticalAlign=middle;whiteSpace=wrap;rounded=0;" parent="1" vertex="1">
          <mxGeometry x="510" y="160" width="100" height="20" as="geometry" />
        </mxCell>
        <mxCell id="IsEehOF22z_RGlnrgcad-15" value="" style="endArrow=none;dashed=1;html=1;rounded=0;entryX=0.5;entryY=1;entryDx=0;entryDy=0;" parent="1" source="P0kKwZg5c5ulI8x3I3IC-37" target="IsEehOF22z_RGlnrgcad-14" edge="1">
          <mxGeometry width="50" height="50" relative="1" as="geometry">
            <mxPoint x="420" y="930" as="sourcePoint" />
            <mxPoint x="420" y="340" as="targetPoint" />
          </mxGeometry>
        </mxCell>
        <mxCell id="IsEehOF22z_RGlnrgcad-14" value="&amp;lt;&amp;lt;create&amp;gt;&amp;gt;" style="text;html=1;strokeColor=none;fillColor=none;align=center;verticalAlign=middle;whiteSpace=wrap;rounded=0;" parent="1" vertex="1">
          <mxGeometry x="390" y="420" width="60" height="20" as="geometry" />
        </mxCell>
        <mxCell id="IsEehOF22z_RGlnrgcad-16" value="openConnection()" style="text;html=1;strokeColor=none;fillColor=none;align=center;verticalAlign=middle;whiteSpace=wrap;rounded=0;" parent="1" vertex="1">
          <mxGeometry x="580" y="430" width="100" height="20" as="geometry" />
        </mxCell>
        <mxCell id="IsEehOF22z_RGlnrgcad-21" value="" style="endArrow=none;dashed=1;html=1;rounded=0;entryX=0.5;entryY=1;entryDx=0;entryDy=0;" parent="1" source="t2_HDo_gR8r6uLbIWAYg-31" target="IsEehOF22z_RGlnrgcad-10" edge="1">
          <mxGeometry width="50" height="50" relative="1" as="geometry">
            <mxPoint x="560" y="300" as="sourcePoint" />
            <mxPoint x="560" y="180" as="targetPoint" />
          </mxGeometry>
        </mxCell>
        <mxCell id="IsEehOF22z_RGlnrgcad-10" value="closeConnection()" style="text;html=1;strokeColor=none;fillColor=none;align=center;verticalAlign=middle;whiteSpace=wrap;rounded=0;" parent="1" vertex="1">
          <mxGeometry x="510" y="370" width="100" height="20" as="geometry" />
        </mxCell>
        <mxCell id="IsEehOF22z_RGlnrgcad-22" value="" style="endArrow=classic;html=1;rounded=0;" parent="1" edge="1">
          <mxGeometry width="50" height="50" relative="1" as="geometry">
            <mxPoint x="440" y="270" as="sourcePoint" />
            <mxPoint x="680" y="270" as="targetPoint" />
          </mxGeometry>
        </mxCell>
        <mxCell id="IsEehOF22z_RGlnrgcad-24" value="" style="endArrow=none;dashed=1;html=1;rounded=0;entryX=0.5;entryY=1;entryDx=0;entryDy=0;" parent="1" source="IsEehOF22z_RGlnrgcad-10" target="IsEehOF22z_RGlnrgcad-23" edge="1">
          <mxGeometry width="50" height="50" relative="1" as="geometry">
            <mxPoint x="560" y="240" as="sourcePoint" />
            <mxPoint x="560" y="180" as="targetPoint" />
          </mxGeometry>
        </mxCell>
        <mxCell id="IsEehOF22z_RGlnrgcad-23" value="storeConfig()" style="text;html=1;strokeColor=none;fillColor=none;align=center;verticalAlign=middle;whiteSpace=wrap;rounded=0;" parent="1" vertex="1">
          <mxGeometry x="510" y="270" width="100" height="20" as="geometry" />
        </mxCell>
        <mxCell id="IsEehOF22z_RGlnrgcad-25" value="" style="endArrow=classic;html=1;rounded=0;" parent="1" edge="1">
          <mxGeometry width="50" height="50" relative="1" as="geometry">
            <mxPoint x="580" y="470" as="sourcePoint" />
            <mxPoint x="670" y="470" as="targetPoint" />
          </mxGeometry>
        </mxCell>
        <mxCell id="IsEehOF22z_RGlnrgcad-26" value="fetchConfig()" style="text;html=1;strokeColor=none;fillColor=none;align=center;verticalAlign=middle;whiteSpace=wrap;rounded=0;" parent="1" vertex="1">
          <mxGeometry x="580" y="469.05" width="90" height="20" as="geometry" />
        </mxCell>
        <mxCell id="IsEehOF22z_RGlnrgcad-28" value="" style="endArrow=open;html=1;rounded=0;endFill=0;" parent="1" edge="1">
          <mxGeometry width="50" height="50" relative="1" as="geometry">
            <mxPoint x="580" y="910" as="sourcePoint" />
            <mxPoint x="680" y="910" as="targetPoint" />
          </mxGeometry>
        </mxCell>
        <mxCell id="IsEehOF22z_RGlnrgcad-29" value="" style="endArrow=classic;html=1;rounded=0;" parent="1" edge="1">
          <mxGeometry width="50" height="50" relative="1" as="geometry">
            <mxPoint x="580" y="830" as="sourcePoint" />
            <mxPoint x="680" y="830" as="targetPoint" />
          </mxGeometry>
        </mxCell>
        <mxCell id="IsEehOF22z_RGlnrgcad-30" value="openConnection()" style="text;html=1;strokeColor=none;fillColor=none;align=center;verticalAlign=middle;whiteSpace=wrap;rounded=0;" parent="1" vertex="1">
          <mxGeometry x="580" y="830.19" width="100" height="20" as="geometry" />
        </mxCell>
        <mxCell id="IsEehOF22z_RGlnrgcad-31" value="closeConnection()" style="text;html=1;strokeColor=none;fillColor=none;align=center;verticalAlign=middle;whiteSpace=wrap;rounded=0;" parent="1" vertex="1">
          <mxGeometry x="580" y="910.12" width="100" height="20" as="geometry" />
        </mxCell>
        <mxCell id="IsEehOF22z_RGlnrgcad-32" value="" style="endArrow=classic;html=1;rounded=0;entryX=1;entryY=0;entryDx=0;entryDy=0;" parent="1" edge="1" target="IsEehOF22z_RGlnrgcad-33">
          <mxGeometry width="50" height="50" relative="1" as="geometry">
            <mxPoint x="580" y="870.19" as="sourcePoint" />
            <mxPoint x="670" y="870" as="targetPoint" />
          </mxGeometry>
        </mxCell>
        <mxCell id="IsEehOF22z_RGlnrgcad-33" value="storeResults()" style="text;html=1;strokeColor=none;fillColor=none;align=center;verticalAlign=middle;whiteSpace=wrap;rounded=0;" parent="1" vertex="1">
          <mxGeometry x="580" y="870" width="100" height="20" as="geometry" />
        </mxCell>
        <mxCell id="IsEehOF22z_RGlnrgcad-34" value="&amp;lt;&amp;lt;create&amp;gt;&amp;gt;" style="text;html=1;strokeColor=none;fillColor=none;align=center;verticalAlign=middle;whiteSpace=wrap;rounded=0;" parent="1" vertex="1">
          <mxGeometry x="670" y="590" width="60" height="20" as="geometry" />
        </mxCell>
        <mxCell id="IsEehOF22z_RGlnrgcad-38" value="&amp;lt;&amp;lt;create&amp;gt;&amp;gt;" style="text;html=1;strokeColor=none;fillColor=none;align=center;verticalAlign=middle;whiteSpace=wrap;rounded=0;" parent="1" vertex="1">
          <mxGeometry x="740" y="690" width="60" height="20" as="geometry" />
        </mxCell>
        <mxCell id="IsEehOF22z_RGlnrgcad-45" value="Close App" style="text;html=1;strokeColor=none;fillColor=none;align=center;verticalAlign=middle;whiteSpace=wrap;rounded=0;" parent="1" vertex="1">
          <mxGeometry x="160" y="970.12" width="100" height="20" as="geometry" />
        </mxCell>
        <mxCell id="IsEehOF22z_RGlnrgcad-46" value="" style="endArrow=none;dashed=1;html=1;rounded=0;entryX=0.5;entryY=1;entryDx=0;entryDy=0;" parent="1" source="t2_HDo_gR8r6uLbIWAYg-71" edge="1">
          <mxGeometry width="50" height="50" relative="1" as="geometry">
            <mxPoint x="979.73" y="890" as="sourcePoint" />
            <mxPoint x="979.73" y="620" as="targetPoint" />
          </mxGeometry>
        </mxCell>
        <mxCell id="IsEehOF22z_RGlnrgcad-42" value="scoresAPICall()" style="text;html=1;strokeColor=none;fillColor=none;align=center;verticalAlign=middle;whiteSpace=wrap;rounded=0;" parent="1" vertex="1">
          <mxGeometry x="950" y="600" width="60" height="20" as="geometry" />
        </mxCell>
        <mxCell id="IsEehOF22z_RGlnrgcad-49" value="scheduleAPICall()" style="text;html=1;strokeColor=none;fillColor=none;align=center;verticalAlign=middle;whiteSpace=wrap;rounded=0;" parent="1" vertex="1">
          <mxGeometry x="1020" y="700" width="60" height="20" as="geometry" />
        </mxCell>
        <mxCell id="P0kKwZg5c5ulI8x3I3IC-1" value="" style="endArrow=classic;html=1;rounded=0;" edge="1" parent="1">
          <mxGeometry width="50" height="50" relative="1" as="geometry">
            <mxPoint x="160" y="410" as="sourcePoint" />
            <mxPoint x="260" y="410" as="targetPoint" />
          </mxGeometry>
        </mxCell>
        <mxCell id="P0kKwZg5c5ulI8x3I3IC-2" value="Open API Data Page" style="text;html=1;strokeColor=none;fillColor=none;align=center;verticalAlign=middle;whiteSpace=wrap;rounded=0;" vertex="1" parent="1">
          <mxGeometry x="170" y="410" width="80" height="30" as="geometry" />
        </mxCell>
        <mxCell id="P0kKwZg5c5ulI8x3I3IC-3" value="" style="endArrow=classic;html=1;rounded=0;" edge="1" parent="1">
          <mxGeometry width="50" height="50" relative="1" as="geometry">
            <mxPoint x="160" y="139.35" as="sourcePoint" />
            <mxPoint x="260" y="139.35" as="targetPoint" />
          </mxGeometry>
        </mxCell>
        <mxCell id="P0kKwZg5c5ulI8x3I3IC-4" value="Open Config Page" style="text;html=1;strokeColor=none;fillColor=none;align=center;verticalAlign=middle;whiteSpace=wrap;rounded=0;" vertex="1" parent="1">
          <mxGeometry x="170" y="140" width="80" height="30" as="geometry" />
        </mxCell>
        <mxCell id="P0kKwZg5c5ulI8x3I3IC-5" value="" style="endArrow=classic;html=1;rounded=0;" edge="1" parent="1">
          <mxGeometry width="50" height="50" relative="1" as="geometry">
            <mxPoint x="160" y="570" as="sourcePoint" />
            <mxPoint x="260" y="570" as="targetPoint" />
          </mxGeometry>
        </mxCell>
        <mxCell id="P0kKwZg5c5ulI8x3I3IC-6" value="Call API Button" style="text;html=1;strokeColor=none;fillColor=none;align=center;verticalAlign=middle;whiteSpace=wrap;rounded=0;" vertex="1" parent="1">
          <mxGeometry x="180" y="570" width="60" height="30" as="geometry" />
        </mxCell>
        <mxCell id="P0kKwZg5c5ulI8x3I3IC-7" value="" style="endArrow=classic;html=1;rounded=0;" edge="1" parent="1">
          <mxGeometry width="50" height="50" relative="1" as="geometry">
            <mxPoint x="300" y="580" as="sourcePoint" />
            <mxPoint x="540" y="580" as="targetPoint" />
          </mxGeometry>
        </mxCell>
        <mxCell id="P0kKwZg5c5ulI8x3I3IC-8" value="callAPI()" style="text;html=1;strokeColor=none;fillColor=none;align=center;verticalAlign=middle;whiteSpace=wrap;rounded=0;" vertex="1" parent="1">
          <mxGeometry x="390" y="580" width="60" height="20" as="geometry" />
        </mxCell>
        <mxCell id="P0kKwZg5c5ulI8x3I3IC-13" value="" style="endArrow=open;html=1;rounded=0;endFill=0;" edge="1" parent="1">
          <mxGeometry width="50" height="50" relative="1" as="geometry">
            <mxPoint x="400" y="199.57" as="sourcePoint" />
            <mxPoint x="310" y="200" as="targetPoint" />
          </mxGeometry>
        </mxCell>
        <mxCell id="P0kKwZg5c5ulI8x3I3IC-14" value="" style="rounded=0;whiteSpace=wrap;html=1;" vertex="1" parent="1">
          <mxGeometry x="280" y="200" width="20" height="40" as="geometry" />
        </mxCell>
        <mxCell id="P0kKwZg5c5ulI8x3I3IC-15" value="displayPage()" style="text;html=1;strokeColor=none;fillColor=none;align=center;verticalAlign=middle;whiteSpace=wrap;rounded=0;" vertex="1" parent="1">
          <mxGeometry x="330" y="200" width="60" height="20" as="geometry" />
        </mxCell>
        <mxCell id="P0kKwZg5c5ulI8x3I3IC-16" value="" style="endArrow=classic;html=1;rounded=0;dashed=1;" edge="1" parent="1">
          <mxGeometry width="50" height="50" relative="1" as="geometry">
            <mxPoint x="310" y="240" as="sourcePoint" />
            <mxPoint x="400" y="240" as="targetPoint" />
          </mxGeometry>
        </mxCell>
        <mxCell id="P0kKwZg5c5ulI8x3I3IC-17" value="" style="endArrow=open;html=1;rounded=0;endFill=0;" edge="1" parent="1">
          <mxGeometry width="50" height="50" relative="1" as="geometry">
            <mxPoint x="260" y="210" as="sourcePoint" />
            <mxPoint x="160" y="210" as="targetPoint" />
          </mxGeometry>
        </mxCell>
        <mxCell id="P0kKwZg5c5ulI8x3I3IC-18" value="Display Config Page" style="text;html=1;strokeColor=none;fillColor=none;align=center;verticalAlign=middle;whiteSpace=wrap;rounded=0;" vertex="1" parent="1">
          <mxGeometry x="170" y="210" width="80" height="30" as="geometry" />
        </mxCell>
        <mxCell id="P0kKwZg5c5ulI8x3I3IC-20" value="" style="endArrow=classic;html=1;rounded=0;" edge="1" parent="1">
          <mxGeometry width="50" height="50" relative="1" as="geometry">
            <mxPoint x="160" y="250" as="sourcePoint" />
            <mxPoint x="260" y="250" as="targetPoint" />
          </mxGeometry>
        </mxCell>
        <mxCell id="P0kKwZg5c5ulI8x3I3IC-21" value="" style="endArrow=classic;html=1;rounded=0;" edge="1" parent="1">
          <mxGeometry width="50" height="50" relative="1" as="geometry">
            <mxPoint x="300" y="259.71" as="sourcePoint" />
            <mxPoint x="400" y="259.71" as="targetPoint" />
          </mxGeometry>
        </mxCell>
        <mxCell id="P0kKwZg5c5ulI8x3I3IC-22" value="newConfig()" style="text;html=1;strokeColor=none;fillColor=none;align=center;verticalAlign=middle;whiteSpace=wrap;rounded=0;" vertex="1" parent="1">
          <mxGeometry x="320" y="260" width="60" height="20" as="geometry" />
        </mxCell>
        <mxCell id="P0kKwZg5c5ulI8x3I3IC-23" value="" style="endArrow=open;html=1;rounded=0;endFill=0;" edge="1" parent="1">
          <mxGeometry width="50" height="50" relative="1" as="geometry">
            <mxPoint x="400" y="299.13" as="sourcePoint" />
            <mxPoint x="310" y="299.56" as="targetPoint" />
          </mxGeometry>
        </mxCell>
        <mxCell id="P0kKwZg5c5ulI8x3I3IC-24" value="" style="rounded=0;whiteSpace=wrap;html=1;" vertex="1" parent="1">
          <mxGeometry x="280" y="299.56" width="20" height="40" as="geometry" />
        </mxCell>
        <mxCell id="P0kKwZg5c5ulI8x3I3IC-25" value="displayPage()" style="text;html=1;strokeColor=none;fillColor=none;align=center;verticalAlign=middle;whiteSpace=wrap;rounded=0;" vertex="1" parent="1">
          <mxGeometry x="330" y="299.56" width="60" height="20" as="geometry" />
        </mxCell>
        <mxCell id="P0kKwZg5c5ulI8x3I3IC-26" value="" style="endArrow=classic;html=1;rounded=0;dashed=1;" edge="1" parent="1">
          <mxGeometry width="50" height="50" relative="1" as="geometry">
            <mxPoint x="310" y="339.56" as="sourcePoint" />
            <mxPoint x="400" y="339.56" as="targetPoint" />
          </mxGeometry>
        </mxCell>
        <mxCell id="P0kKwZg5c5ulI8x3I3IC-28" value="" style="endArrow=none;dashed=1;html=1;rounded=0;entryX=0.5;entryY=1;entryDx=0;entryDy=0;" edge="1" parent="1" source="t2_HDo_gR8r6uLbIWAYg-84" target="P0kKwZg5c5ulI8x3I3IC-27">
          <mxGeometry width="50" height="50" relative="1" as="geometry">
            <mxPoint x="700" y="610" as="sourcePoint" />
            <mxPoint x="700" y="330" as="targetPoint" />
          </mxGeometry>
        </mxCell>
        <mxCell id="P0kKwZg5c5ulI8x3I3IC-27" value="" style="shape=umlDestroy;whiteSpace=wrap;html=1;strokeWidth=3;targetShapes=umlLifeline;" vertex="1" parent="1">
          <mxGeometry x="690" y="360.29" width="20" height="20" as="geometry" />
        </mxCell>
        <mxCell id="P0kKwZg5c5ulI8x3I3IC-29" value="Close Page" style="text;html=1;strokeColor=none;fillColor=none;align=center;verticalAlign=middle;whiteSpace=wrap;rounded=0;" vertex="1" parent="1">
          <mxGeometry x="170" y="350" width="80" height="20" as="geometry" />
        </mxCell>
        <mxCell id="P0kKwZg5c5ulI8x3I3IC-30" value="" style="endArrow=classic;html=1;rounded=0;" edge="1" parent="1">
          <mxGeometry width="50" height="50" relative="1" as="geometry">
            <mxPoint x="160" y="350" as="sourcePoint" />
            <mxPoint x="260" y="350" as="targetPoint" />
          </mxGeometry>
        </mxCell>
        <mxCell id="P0kKwZg5c5ulI8x3I3IC-31" value="" style="endArrow=classic;html=1;rounded=0;" edge="1" parent="1">
          <mxGeometry width="50" height="50" relative="1" as="geometry">
            <mxPoint x="300" y="360" as="sourcePoint" />
            <mxPoint x="400" y="360" as="targetPoint" />
          </mxGeometry>
        </mxCell>
        <mxCell id="P0kKwZg5c5ulI8x3I3IC-32" value="closePage()" style="text;html=1;strokeColor=none;fillColor=none;align=center;verticalAlign=middle;whiteSpace=wrap;rounded=0;" vertex="1" parent="1">
          <mxGeometry x="320" y="360.29" width="60" height="20" as="geometry" />
        </mxCell>
        <mxCell id="P0kKwZg5c5ulI8x3I3IC-33" value="" style="endArrow=open;html=1;rounded=0;endFill=0;" edge="1" parent="1">
          <mxGeometry width="50" height="50" relative="1" as="geometry">
            <mxPoint x="260" y="309.56" as="sourcePoint" />
            <mxPoint x="160" y="309.56" as="targetPoint" />
          </mxGeometry>
        </mxCell>
        <mxCell id="P0kKwZg5c5ulI8x3I3IC-34" value="Display Config Page" style="text;html=1;strokeColor=none;fillColor=none;align=center;verticalAlign=middle;whiteSpace=wrap;rounded=0;" vertex="1" parent="1">
          <mxGeometry x="170" y="309.56" width="80" height="30" as="geometry" />
        </mxCell>
        <mxCell id="P0kKwZg5c5ulI8x3I3IC-35" value="" style="endArrow=open;html=1;rounded=0;endFill=0;" edge="1" parent="1">
          <mxGeometry width="50" height="50" relative="1" as="geometry">
            <mxPoint x="540" y="520" as="sourcePoint" />
            <mxPoint x="310" y="520.4300000000001" as="targetPoint" />
          </mxGeometry>
        </mxCell>
        <mxCell id="P0kKwZg5c5ulI8x3I3IC-36" value="" style="rounded=0;whiteSpace=wrap;html=1;" vertex="1" parent="1">
          <mxGeometry x="280" y="520.4300000000001" width="20" height="40" as="geometry" />
        </mxCell>
        <mxCell id="P0kKwZg5c5ulI8x3I3IC-38" value="" style="endArrow=classic;html=1;rounded=0;dashed=1;" edge="1" parent="1">
          <mxGeometry width="50" height="50" relative="1" as="geometry">
            <mxPoint x="310" y="560.43" as="sourcePoint" />
            <mxPoint x="540" y="560" as="targetPoint" />
          </mxGeometry>
        </mxCell>
        <mxCell id="P0kKwZg5c5ulI8x3I3IC-39" value="" style="rounded=0;whiteSpace=wrap;html=1;" vertex="1" parent="1">
          <mxGeometry x="680" y="470" width="20" height="40" as="geometry" />
        </mxCell>
        <mxCell id="P0kKwZg5c5ulI8x3I3IC-40" value="" style="endArrow=classic;html=1;rounded=0;dashed=1;" edge="1" parent="1">
          <mxGeometry width="50" height="50" relative="1" as="geometry">
            <mxPoint x="670" y="510" as="sourcePoint" />
            <mxPoint x="580" y="510.43" as="targetPoint" />
          </mxGeometry>
        </mxCell>
        <mxCell id="P0kKwZg5c5ulI8x3I3IC-42" value="" style="endArrow=none;dashed=1;html=1;rounded=0;entryX=0.5;entryY=1;entryDx=0;entryDy=0;" edge="1" parent="1" source="P0kKwZg5c5ulI8x3I3IC-8" target="P0kKwZg5c5ulI8x3I3IC-37">
          <mxGeometry width="50" height="50" relative="1" as="geometry">
            <mxPoint x="420" y="610" as="sourcePoint" />
            <mxPoint x="420" y="440" as="targetPoint" />
          </mxGeometry>
        </mxCell>
        <mxCell id="P0kKwZg5c5ulI8x3I3IC-37" value="displayPage()" style="text;html=1;strokeColor=none;fillColor=none;align=center;verticalAlign=middle;whiteSpace=wrap;rounded=0;" vertex="1" parent="1">
          <mxGeometry x="390" y="520.4300000000001" width="60" height="20" as="geometry" />
        </mxCell>
        <mxCell id="P0kKwZg5c5ulI8x3I3IC-44" value="" style="endArrow=none;dashed=1;html=1;rounded=0;entryX=0.5;entryY=1;entryDx=0;entryDy=0;" edge="1" parent="1" source="IsEehOF22z_RGlnrgcad-34" target="P0kKwZg5c5ulI8x3I3IC-43">
          <mxGeometry width="50" height="50" relative="1" as="geometry">
            <mxPoint x="700" y="670" as="sourcePoint" />
            <mxPoint x="700" y="530" as="targetPoint" />
          </mxGeometry>
        </mxCell>
        <mxCell id="P0kKwZg5c5ulI8x3I3IC-43" value="" style="shape=umlDestroy;whiteSpace=wrap;html=1;strokeWidth=3;targetShapes=umlLifeline;" vertex="1" parent="1">
          <mxGeometry x="690" y="540" width="20" height="20" as="geometry" />
        </mxCell>
        <mxCell id="P0kKwZg5c5ulI8x3I3IC-45" value="" style="endArrow=none;dashed=1;html=1;rounded=0;entryX=0.5;entryY=1;entryDx=0;entryDy=0;" edge="1" parent="1" source="P0kKwZg5c5ulI8x3I3IC-49" target="P0kKwZg5c5ulI8x3I3IC-8">
          <mxGeometry width="50" height="50" relative="1" as="geometry">
            <mxPoint x="420" y="920" as="sourcePoint" />
            <mxPoint x="420" y="610" as="targetPoint" />
          </mxGeometry>
        </mxCell>
        <mxCell id="P0kKwZg5c5ulI8x3I3IC-46" value="" style="endArrow=classic;html=1;rounded=0;" edge="1" parent="1">
          <mxGeometry width="50" height="50" relative="1" as="geometry">
            <mxPoint x="160" y="810" as="sourcePoint" />
            <mxPoint x="260" y="810" as="targetPoint" />
          </mxGeometry>
        </mxCell>
        <mxCell id="P0kKwZg5c5ulI8x3I3IC-47" value="Verify Data" style="text;html=1;strokeColor=none;fillColor=none;align=center;verticalAlign=middle;whiteSpace=wrap;rounded=0;" vertex="1" parent="1">
          <mxGeometry x="170" y="810" width="80" height="20" as="geometry" />
        </mxCell>
        <mxCell id="P0kKwZg5c5ulI8x3I3IC-48" value="" style="endArrow=classic;html=1;rounded=0;" edge="1" parent="1">
          <mxGeometry width="50" height="50" relative="1" as="geometry">
            <mxPoint x="300" y="820" as="sourcePoint" />
            <mxPoint x="540" y="820" as="targetPoint" />
          </mxGeometry>
        </mxCell>
        <mxCell id="P0kKwZg5c5ulI8x3I3IC-50" value="" style="endArrow=open;html=1;rounded=0;endFill=0;" edge="1" parent="1">
          <mxGeometry width="50" height="50" relative="1" as="geometry">
            <mxPoint x="540" y="760" as="sourcePoint" />
            <mxPoint x="310" y="760.4300000000001" as="targetPoint" />
          </mxGeometry>
        </mxCell>
        <mxCell id="P0kKwZg5c5ulI8x3I3IC-51" value="" style="rounded=0;whiteSpace=wrap;html=1;" vertex="1" parent="1">
          <mxGeometry x="280" y="760.4300000000001" width="20" height="40" as="geometry" />
        </mxCell>
        <mxCell id="P0kKwZg5c5ulI8x3I3IC-52" value="" style="endArrow=classic;html=1;rounded=0;dashed=1;" edge="1" parent="1">
          <mxGeometry width="50" height="50" relative="1" as="geometry">
            <mxPoint x="310" y="800.43" as="sourcePoint" />
            <mxPoint x="540" y="800" as="targetPoint" />
          </mxGeometry>
        </mxCell>
        <mxCell id="P0kKwZg5c5ulI8x3I3IC-53" value="displayPage()" style="text;html=1;strokeColor=none;fillColor=none;align=center;verticalAlign=middle;whiteSpace=wrap;rounded=0;" vertex="1" parent="1">
          <mxGeometry x="390" y="760.4300000000001" width="60" height="20" as="geometry" />
        </mxCell>
        <mxCell id="P0kKwZg5c5ulI8x3I3IC-56" value="" style="endArrow=none;dashed=1;html=1;rounded=0;" edge="1" parent="1" source="P0kKwZg5c5ulI8x3I3IC-70" target="P0kKwZg5c5ulI8x3I3IC-49">
          <mxGeometry width="50" height="50" relative="1" as="geometry">
            <mxPoint x="420" y="1060" as="sourcePoint" />
            <mxPoint x="420" y="610" as="targetPoint" />
          </mxGeometry>
        </mxCell>
        <mxCell id="P0kKwZg5c5ulI8x3I3IC-49" value="verifyData()" style="text;html=1;strokeColor=none;fillColor=none;align=center;verticalAlign=middle;whiteSpace=wrap;rounded=0;" vertex="1" parent="1">
          <mxGeometry x="390" y="820" width="60" height="20" as="geometry" />
        </mxCell>
        <mxCell id="P0kKwZg5c5ulI8x3I3IC-57" value="" style="endArrow=open;html=1;rounded=0;endFill=0;" edge="1" parent="1">
          <mxGeometry width="50" height="50" relative="1" as="geometry">
            <mxPoint x="260" y="530" as="sourcePoint" />
            <mxPoint x="160" y="530" as="targetPoint" />
          </mxGeometry>
        </mxCell>
        <mxCell id="P0kKwZg5c5ulI8x3I3IC-58" value="Display Config Page" style="text;html=1;strokeColor=none;fillColor=none;align=center;verticalAlign=middle;whiteSpace=wrap;rounded=0;" vertex="1" parent="1">
          <mxGeometry x="170" y="530" width="80" height="30" as="geometry" />
        </mxCell>
        <mxCell id="P0kKwZg5c5ulI8x3I3IC-59" value="Enter Config Values" style="text;html=1;strokeColor=none;fillColor=none;align=center;verticalAlign=middle;whiteSpace=wrap;rounded=0;" vertex="1" parent="1">
          <mxGeometry x="170" y="250" width="80" height="30" as="geometry" />
        </mxCell>
        <mxCell id="P0kKwZg5c5ulI8x3I3IC-60" value="" style="endArrow=none;dashed=1;html=1;rounded=0;entryX=0.5;entryY=1;entryDx=0;entryDy=0;" edge="1" parent="1" target="t2_HDo_gR8r6uLbIWAYg-71">
          <mxGeometry width="50" height="50" relative="1" as="geometry">
            <mxPoint x="980" y="1070" as="sourcePoint" />
            <mxPoint x="979.73" y="620" as="targetPoint" />
          </mxGeometry>
        </mxCell>
        <mxCell id="t2_HDo_gR8r6uLbIWAYg-71" value="" style="rounded=0;whiteSpace=wrap;html=1;" parent="1" vertex="1">
          <mxGeometry x="970" y="690" width="20" height="60" as="geometry" />
        </mxCell>
        <mxCell id="P0kKwZg5c5ulI8x3I3IC-62" value="" style="endArrow=none;dashed=1;html=1;rounded=0;exitX=0.5;exitY=1;exitDx=0;exitDy=0;" edge="1" parent="1" source="t2_HDo_gR8r6uLbIWAYg-79" target="P0kKwZg5c5ulI8x3I3IC-61">
          <mxGeometry width="50" height="50" relative="1" as="geometry">
            <mxPoint x="700" y="610" as="sourcePoint" />
            <mxPoint x="700" y="960" as="targetPoint" />
          </mxGeometry>
        </mxCell>
        <mxCell id="P0kKwZg5c5ulI8x3I3IC-61" value="" style="shape=umlDestroy;whiteSpace=wrap;html=1;strokeWidth=3;targetShapes=umlLifeline;" vertex="1" parent="1">
          <mxGeometry x="690" y="900" width="20" height="20" as="geometry" />
        </mxCell>
        <mxCell id="P0kKwZg5c5ulI8x3I3IC-63" value="" style="endArrow=none;dashed=1;html=1;rounded=0;exitX=0.5;exitY=1;exitDx=0;exitDy=0;" edge="1" parent="1" source="IsEehOF22z_RGlnrgcad-34" target="t2_HDo_gR8r6uLbIWAYg-79">
          <mxGeometry width="50" height="50" relative="1" as="geometry">
            <mxPoint x="700" y="610" as="sourcePoint" />
            <mxPoint x="700" y="900" as="targetPoint" />
          </mxGeometry>
        </mxCell>
        <mxCell id="t2_HDo_gR8r6uLbIWAYg-79" value="" style="rounded=0;whiteSpace=wrap;html=1;" parent="1" vertex="1">
          <mxGeometry x="690" y="830" width="20" height="60" as="geometry" />
        </mxCell>
        <mxCell id="P0kKwZg5c5ulI8x3I3IC-66" value="closeConnection()" style="text;html=1;strokeColor=none;fillColor=none;align=center;verticalAlign=middle;whiteSpace=wrap;rounded=0;" vertex="1" parent="1">
          <mxGeometry x="580" y="550" width="100" height="20" as="geometry" />
        </mxCell>
        <mxCell id="P0kKwZg5c5ulI8x3I3IC-67" value="" style="endArrow=classic;html=1;rounded=0;" edge="1" parent="1">
          <mxGeometry width="50" height="50" relative="1" as="geometry">
            <mxPoint x="160" y="910.12" as="sourcePoint" />
            <mxPoint x="260" y="910.12" as="targetPoint" />
          </mxGeometry>
        </mxCell>
        <mxCell id="P0kKwZg5c5ulI8x3I3IC-68" value="Close Page" style="text;html=1;strokeColor=none;fillColor=none;align=center;verticalAlign=middle;whiteSpace=wrap;rounded=0;" vertex="1" parent="1">
          <mxGeometry x="170" y="910.12" width="80" height="20" as="geometry" />
        </mxCell>
        <mxCell id="P0kKwZg5c5ulI8x3I3IC-69" value="" style="endArrow=classic;html=1;rounded=0;" edge="1" parent="1">
          <mxGeometry width="50" height="50" relative="1" as="geometry">
            <mxPoint x="300" y="920.12" as="sourcePoint" />
            <mxPoint x="540" y="920.12" as="targetPoint" />
          </mxGeometry>
        </mxCell>
        <mxCell id="P0kKwZg5c5ulI8x3I3IC-71" value="" style="endArrow=none;dashed=1;html=1;rounded=0;" edge="1" parent="1" target="P0kKwZg5c5ulI8x3I3IC-70">
          <mxGeometry width="50" height="50" relative="1" as="geometry">
            <mxPoint x="420" y="1070" as="sourcePoint" />
            <mxPoint x="420" y="840" as="targetPoint" />
          </mxGeometry>
        </mxCell>
        <mxCell id="P0kKwZg5c5ulI8x3I3IC-70" value="closePage()" style="text;html=1;strokeColor=none;fillColor=none;align=center;verticalAlign=middle;whiteSpace=wrap;rounded=0;" vertex="1" parent="1">
          <mxGeometry x="380" y="920.12" width="80" height="20" as="geometry" />
        </mxCell>
        <mxCell id="P0kKwZg5c5ulI8x3I3IC-72" value="" style="endArrow=classic;html=1;rounded=0;dashed=1;" edge="1" parent="1">
          <mxGeometry width="50" height="50" relative="1" as="geometry">
            <mxPoint x="540" y="960.12" as="sourcePoint" />
            <mxPoint x="300" y="960.12" as="targetPoint" />
          </mxGeometry>
        </mxCell>
        <mxCell id="P0kKwZg5c5ulI8x3I3IC-73" value="" style="endArrow=none;dashed=1;html=1;rounded=0;entryX=0.5;entryY=1;entryDx=0;entryDy=0;" edge="1" parent="1">
          <mxGeometry width="50" height="50" relative="1" as="geometry">
            <mxPoint x="1120" y="1070" as="sourcePoint" />
            <mxPoint x="1119.52" y="740" as="targetPoint" />
          </mxGeometry>
        </mxCell>
        <mxCell id="P0kKwZg5c5ulI8x3I3IC-74" value="" style="endArrow=none;dashed=1;html=1;rounded=0;entryX=0.5;entryY=1;entryDx=0;entryDy=0;" edge="1" parent="1" target="t2_HDo_gR8r6uLbIWAYg-31">
          <mxGeometry width="50" height="50" relative="1" as="geometry">
            <mxPoint x="559.52" y="1070.12" as="sourcePoint" />
            <mxPoint x="559.52" y="970.12" as="targetPoint" />
          </mxGeometry>
        </mxCell>
      </root>
    </mxGraphModel>
  </diagram>
</mxfile>
